<?xml version="1.0" encoding="utf-8"?>
<!-- Generator: Adobe Illustrator 21.0.0, SVG Export Plug-In . SVG Version: 6.00 Build 0)  -->
<svg version="1.1" id="Layer_1" xmlns="http://www.w3.org/2000/svg" xmlns:xlink="http://www.w3.org/1999/xlink" x="0px" y="0px" xml:space="preserve">
	<style type="text/css">
		.st0{fill:#4F4F4F;}
	</style>
	<g>
		<g>
			<path class="st0" d="M113.9,189.3c0,5.4,4.4,9.7,9.7,9.7h45.6c5.4,0,9.7-4.4,9.7-9.7v-12.7h4c6.2,0,11.2-5,11.2-11.2v-28.3
				c0-6.2-5-11.2-11.2-11.2h-4v-4.2c1.8-2.1,3-5.1,3-8.4c0-6.5-4.5-11.7-10-11.7c-1.1,0-2.3,0.2-3.3,0.7c-2.5-2.7-5.8-4.2-9.3-4.2
				c-1.8,0-3.5,0.4-5,1.1c-3.2-4.1-7.7-6.5-12.5-6.5c-4.8,0-9.3,2.4-12.5,6.4c-1.5-0.7-3.2-1-4.8-1c-7.4,0-13.5,6.8-13.5,15.2
				c0,3.6,1.1,6.9,3,9.5V189.3z M124.4,128.5c1.7,0,3.3-0.3,4.8-1c3.2,4.1,7.7,6.4,12.5,6.4c1.2,0,2.4-0.2,3.6-0.5
				c-1.3,0.5-2.2,1.7-2.2,3.1v34.7c0,1.8,1.5,3.3,3.3,3.3s3.3-1.5,3.3-3.3v-34.7c0-1.8-1.5-3.3-3.3-3.3c-0.2,0-0.4,0-0.6,0.1
				c3.2-0.9,6.2-3,8.5-5.9c1.6,0.7,3.3,1.1,5,1.1c3.5,0,6.8-1.5,9.3-4.2c1.1,0.4,2.2,0.7,3.3,0.7c0.1,0,0.2,0,0.3,0v55.4h-51.7v-52.5
				C121.7,128.3,123,128.5,124.4,128.5z M169.2,192.4h-45.6c-1.7,0-3.1-1.4-3.1-3.1v-2.2h51.7v2.2C172.2,191,170.8,192.4,169.2,192.4
				z M182.9,132.5c2.5,0,4.5,2,4.5,4.5v28.3c0,2.5-2,4.5-4.5,4.5h-4v-37.4H182.9z M124.4,104.8c1.3,0,2.6,0.5,3.7,1.4
				c0.8,0.6,1.8,0.9,2.8,0.7c1-0.2,1.8-0.8,2.3-1.7c2-3.7,5.2-5.9,8.5-5.9c3.4,0,6.6,2.2,8.6,6c0.5,0.9,1.3,1.5,2.3,1.7
				c1,0.2,2-0.1,2.8-0.8c0.8-0.7,2.1-1.5,3.9-1.5c2.2,0,4.3,1.4,5.6,3.7c0.5,0.9,1.4,1.5,2.5,1.7c1,0.1,2.1-0.2,2.8-1
				c0.4-0.4,1-0.9,1.8-0.9c1.6,0,3.3,2.1,3.3,5.1s-1.7,5.1-3.3,5.1c-0.8,0-1.4-0.5-1.8-0.9c-0.7-0.7-1.8-1.1-2.8-1
				c-1,0.1-1.9,0.8-2.5,1.7c-1.3,2.3-3.4,3.7-5.6,3.7c-1.7,0-3.1-0.8-3.9-1.5c-0.8-0.7-1.8-0.9-2.8-0.8c-1,0.2-1.9,0.8-2.3,1.7
				c-2,3.8-5.2,6-8.6,6c-3.3,0-6.5-2.2-8.5-5.9c-0.5-0.9-1.3-1.5-2.3-1.7c-0.2,0-0.4-0.1-0.6-0.1c-0.8,0-1.5,0.3-2.1,0.8
				c-1.1,0.9-2.4,1.4-3.7,1.4c-3.8,0-6.8-3.8-6.8-8.6C117.5,108.6,120.6,104.8,124.4,104.8z"/>
			<path class="st0" d="M130,174.6c1.8,0,3.3-1.5,3.3-3.3v-34.7c0-1.8-1.5-3.3-3.3-3.3s-3.3,1.5-3.3,3.3v34.7
				C126.6,173.2,128.1,174.6,130,174.6z"/>
			<path class="st0" d="M162.8,174.6c1.8,0,3.3-1.5,3.3-3.3v-34.7c0-1.8-1.5-3.3-3.3-3.3s-3.3,1.5-3.3,3.3v34.7
				C159.5,173.2,161,174.6,162.8,174.6z"/>
		</g>
	</g>
</svg>
